<?xml version="1.0" encoding="utf-8"?>
<svg viewBox="0 0 500 500" xmlns="http://www.w3.org/2000/svg">
  <path style="stroke: rgb(0, 0, 0); isolation: isolate; fill: none;" d="M 0.655 0.728 L 22.121 1.065 L 64.7 1.219 L 98.895 1.709 L 108.699 1.896 L 107.612 11.338 L 91.533 11.752 L 70.882 11.129 L 64.512 11.267 L 65.574 31.359 L 65.914 65.403 L 66.546 88.292 L 66.405 118.596 L 49.117 123.015 L 48.107 111.84 L 45.784 87.723 L 45.644 46.957 L 42.828 16.028 L 39.556 11.317 L 25.996 13.498 L 1.064 16.865 L 0.655 0.728 Z"/>
  <path style="stroke: rgb(0, 0, 0); isolation: isolate; fill: none;" d="M 114.135 93.136 L 124.73 93.185 L 133.076 87.642 L 138.305 75.638 L 134.737 64.309 L 122.885 60.607 L 102.36 57.392 L 95.291 74.769 L 89.546 97.017 L 92.275 112.637 L 107.648 121.536 L 123.394 121.62 L 129.262 116.281 L 134.113 107.607 L 134.532 104.691 L 123.446 108.18 L 118.235 108.593 L 109.013 104.66 L 108.166 96.219 L 109.683 87.7 L 112.48 73.563 L 119.209 74.026 L 120.666 79.367 L 120.527 84.036 L 115.796 86.153 L 111.506 91.628 C 111.268 93.132 114.962 96.469 114.653 94.977 C 114.524 94.353 113.49 93.136 114.135 93.136 Z"/>
  <path style="stroke: rgb(0, 0, 0); isolation: isolate; fill: none;" d="M 150.867 3.963 L 150.867 43.31 L 153.08 67.228 L 151.237 99.989 L 151.868 130.154 L 166.123 129.542 L 166.123 114.59 L 165.011 94.486 L 165.011 87.843 L 164.208 76.09 L 169.036 91.227 L 174.28 103.537 L 181.871 112.564 L 186.787 128.855 L 202.437 127.434 L 193.944 109.13 L 184.581 88.472 L 177.588 73.618 L 189.026 53.792 L 196.822 28.992 L 189.904 21.951 L 184.046 32.812 L 176.77 52.41 L 167.847 58.437 L 162.494 51.265 L 164.136 31.282 L 164.566 9.444 L 162.159 1.294 L 150.867 3.963 Z"/>
  <path style="stroke: rgb(0, 0, 0); isolation: isolate; fill: none;" d="M 209 81.298 L 208.38 97.403 L 209 113.66 L 211.686 124.738 L 224.948 125.036 L 243.297 122.093 L 245.47 107.485 L 245.28 89.295 L 243.661 79.15 L 234.415 82.482 L 234.695 98.601 L 234.405 110.433 L 228.174 113.657 L 221.904 111.076 L 217.473 99.479 C 217.473 99.479 217.499 94.539 218.104 93.207 C 218.709 91.875 219.397 87.94 219.811 86.855 C 220.223 85.769 221.157 79.7 221.157 79.7 L 209 81.298 Z"/>
  <path style="stroke: rgb(0, 0, 0); isolation: isolate; fill: none;" d="M 254.834 82.319 L 254.532 94.314 C 254.532 94.314 255.725 96.823 256.163 104.159 C 256.601 111.496 258.937 118.802 257.957 123.208 C 256.977 127.614 254.153 137.338 254.016 138.806 C 253.879 140.273 251.809 159.129 251.809 159.671 C 251.809 160.214 251.947 171.041 251.947 171.312 C 251.947 171.583 252.35 176.173 252.35 176.173 L 258.811 178.478 C 258.811 178.478 261.698 177.122 261.835 176.986 C 261.972 176.851 263.01 174.613 263.872 172.478 C 264.734 170.342 266.603 165.631 266.879 164.952 C 267.154 164.271 267.558 159.63 267.558 158.217 C 267.558 156.804 266.001 155.016 266.321 148.881 C 266.642 142.746 266.779 138.294 266.916 138.022 C 267.053 137.751 271.439 129.181 271.439 129.181 L 272.265 124.432 C 272.265 124.432 280.566 125.047 280.703 125.047 C 280.84 125.047 295.937 125.616 295.937 125.616 L 300.155 113.524 C 300.155 113.524 303.22 108.552 303.22 107.603 C 303.22 106.654 302.394 97.341 302.394 97.206 C 302.394 97.07 304.008 91.227 303.192 89.543 C 302.376 87.86 298.123 82.92 297.986 82.784 C 297.848 82.647 290.062 77.383 290.062 77.383 C 290.062 77.383 276.166 74.806 275.423 75.142 C 274.679 75.476 261.609 77.655 261.471 77.655 C 261.334 77.655 255.011 81.589 254.834 82.319 Z"/>
  <path style="stroke: rgb(0, 0, 0); isolation: isolate; fill: none;" d="M 265.242 87.433 L 266.818 95.932 C 266.818 95.932 267.57 102.61 267.57 103.018 C 267.57 103.425 268.533 111.158 268.533 111.293 C 268.533 111.429 267.237 114.691 272.244 113.871 C 277.251 113.051 286.123 112.582 287.077 111.442 C 288.03 110.302 290.157 109.962 290.294 104.683 C 290.431 99.403 288.223 92.626 287.672 91.404 C 287.123 90.183 283.136 86.25 282.861 86.113 C 282.585 85.977 275.099 84.983 274.961 84.983 C 274.824 84.983 266.214 86.945 265.242 87.433 Z"/>
</svg>