<svg width="416" height="143" viewBox="0 0 416 143" fill="none" xmlns="http://www.w3.org/2000/svg">
<path d="M404.29 41.0309C411.792 49.0582 415.859 59.779 415.599 70.8461C415.865 81.9662 411.801 92.7435 404.29 100.836C400.913 104.711 396.754 107.801 392.096 109.895C387.437 111.989 382.389 113.037 377.295 112.968C366.884 112.968 358.726 109.513 352.823 102.505C352.753 102.416 352.658 102.35 352.55 102.319C352.442 102.287 352.327 102.291 352.221 102.33C352.115 102.369 352.024 102.44 351.961 102.534C351.897 102.628 351.865 102.741 351.868 102.855V142.065C351.868 142.214 351.809 142.357 351.705 142.463C351.601 142.568 351.461 142.628 351.314 142.628H332.209C332.062 142.628 331.921 142.568 331.818 142.463C331.714 142.357 331.655 142.214 331.655 142.065V31.5389C331.655 31.4659 331.67 31.3936 331.698 31.3263C331.726 31.2591 331.767 31.1983 331.819 31.1476C331.87 31.0968 331.932 31.0572 331.999 31.0311C332.066 31.0049 332.137 30.9928 332.209 30.9954H351.314C351.385 30.9928 351.457 31.0049 351.524 31.0311C351.591 31.0572 351.653 31.0968 351.704 31.1476C351.756 31.1983 351.797 31.2591 351.825 31.3263C351.853 31.3936 351.868 31.4659 351.868 31.5389V38.8568C351.865 38.9709 351.897 39.083 351.961 39.1772C352.024 39.2714 352.115 39.3429 352.221 39.3816C352.327 39.4203 352.442 39.4241 352.55 39.3927C352.658 39.3612 352.753 39.2959 352.823 39.2062C358.726 32.1989 366.884 28.7437 377.295 28.7437C382.399 28.7043 387.451 29.7812 392.109 31.9013C396.767 34.0214 400.921 37.135 404.29 41.0309V41.0309ZM373.532 93.4404C376.401 93.5379 379.259 93.037 381.931 91.9687C384.602 90.9003 387.03 89.2873 389.064 87.2289C391.15 85.0942 392.784 82.5479 393.865 79.747C394.946 76.9461 395.451 73.9499 395.349 70.9431C395.465 67.9637 394.966 64.9925 393.883 62.221C392.801 59.4495 391.159 56.9391 389.064 54.8514C384.895 50.754 379.322 48.4634 373.522 48.4634C367.722 48.4634 362.15 50.754 357.981 54.8514C355.943 56.9733 354.35 59.4938 353.299 62.2598C352.248 65.0259 351.761 67.9801 351.868 70.9431C351.775 73.9338 352.267 76.9134 353.316 79.7091C354.366 82.5048 355.951 85.0608 357.981 87.2289C360.029 89.2666 362.464 90.8595 365.138 91.9107C367.811 92.9619 370.667 93.4493 373.532 93.3433V93.4404Z" fill="#0E0546"/>
<path d="M301.083 31.9122H320.187C320.259 31.9121 320.33 31.9268 320.397 31.9553C320.463 31.9838 320.523 32.0256 320.572 32.0782C320.622 32.1307 320.661 32.1929 320.687 32.2611C320.713 32.3293 320.725 32.4021 320.722 32.4751V111.089C320.725 111.162 320.713 111.235 320.687 111.303C320.661 111.372 320.622 111.434 320.572 111.486C320.523 111.539 320.463 111.581 320.397 111.609C320.33 111.638 320.259 111.652 320.187 111.652H301.083C301.011 111.652 300.94 111.638 300.874 111.609C300.808 111.581 300.748 111.539 300.698 111.486C300.648 111.434 300.609 111.372 300.583 111.303C300.558 111.235 300.546 111.162 300.548 111.089V104.451C300.555 104.329 300.522 104.209 300.454 104.109C300.385 104.009 300.286 103.935 300.171 103.899C300.057 103.863 299.934 103.868 299.822 103.911C299.71 103.955 299.616 104.036 299.555 104.14C294.645 110.682 287.137 113.846 277.145 113.846C273.183 113.978 269.237 113.266 265.561 111.755C261.886 110.244 258.563 107.967 255.806 105.072C250.304 99.2487 247.477 91.1932 247.477 80.8277V32.4751C247.477 32.3258 247.535 32.1826 247.639 32.0771C247.743 31.9715 247.884 31.9122 248.031 31.9122H267.135C267.207 31.9121 267.278 31.9268 267.344 31.9553C267.41 31.9838 267.47 32.0256 267.52 32.0782C267.57 32.1307 267.609 32.1929 267.635 32.2611C267.66 32.3293 267.672 32.4021 267.67 32.4751V78.3237C267.67 88.9997 273.802 94.7454 283.221 94.7454C293.728 94.7454 300.414 88.2039 300.414 74.9656V32.4751C300.409 32.3891 300.423 32.303 300.457 32.2238C300.49 32.1446 300.542 32.0746 300.607 32.0196C300.672 31.9646 300.749 31.9262 300.832 31.9075C300.915 31.8888 301.001 31.8904 301.083 31.9122V31.9122Z" fill="#0E0546"/>
<path d="M226.749 111.632H204.626C204.546 111.633 204.468 111.615 204.395 111.582C204.322 111.548 204.258 111.499 204.206 111.438L176.772 76.6538C176.699 76.5676 176.603 76.5058 176.495 76.4764C176.387 76.4471 176.272 76.4516 176.167 76.4894C176.062 76.5272 175.97 76.5965 175.904 76.6882C175.838 76.7799 175.801 76.8897 175.798 77.0032V111.089C175.793 111.235 175.732 111.373 175.629 111.474C175.525 111.576 175.387 111.632 175.244 111.632H156.139C155.999 111.627 155.866 111.569 155.766 111.468C155.667 111.367 155.609 111.231 155.604 111.089V0.562917C155.604 0.416925 155.66 0.27661 155.76 0.171583C155.86 0.0665564 155.996 0.00503418 156.139 0L175.244 0C175.391 0 175.531 0.0593072 175.635 0.164875C175.739 0.270442 175.798 0.413622 175.798 0.562917V65.376C175.793 65.4935 175.827 65.6093 175.892 65.706C175.958 65.8027 176.053 65.875 176.163 65.9122C176.273 65.9494 176.392 65.9494 176.501 65.9122C176.611 65.8751 176.706 65.8027 176.772 65.706L202.62 32.1057C202.673 32.0395 202.74 31.9861 202.816 31.9491C202.892 31.9122 202.975 31.8928 203.059 31.8922H225.813C225.915 31.8948 226.016 31.9265 226.102 31.9838C226.188 32.041 226.257 32.1215 226.3 32.2163C226.344 32.311 226.361 32.4162 226.349 32.5201C226.337 32.624 226.297 32.7225 226.233 32.8045L195.666 70.9276C195.584 71.0285 195.539 71.1555 195.539 71.2867C195.539 71.4178 195.584 71.5448 195.666 71.6458L227.15 110.739C227.208 110.82 227.244 110.915 227.254 111.014C227.264 111.114 227.247 111.214 227.206 111.305C227.166 111.396 227.102 111.474 227.021 111.532C226.941 111.589 226.847 111.624 226.749 111.632V111.632Z" fill="#0E0546"/>
<path d="M94.1846 91.2317C94.1239 91.2941 94.0784 91.37 94.0517 91.4535C94.0249 91.5369 94.0178 91.6256 94.0308 91.7123C94.0438 91.799 94.0766 91.8815 94.1265 91.9531C94.1764 92.0247 94.2421 92.0834 94.3184 92.1246C102.953 96.8609 111.398 94.9392 119.746 86.4566C125.038 81.0604 127.388 75.0236 126.681 68.6568C126.663 68.529 126.692 68.3988 126.762 68.2913C126.833 68.1839 126.94 68.1066 127.063 68.0745L144.257 63.3964C144.331 63.3764 144.408 63.3723 144.484 63.3843C144.56 63.3963 144.633 63.4242 144.697 63.4661C144.762 63.5081 144.817 63.5633 144.86 63.6281C144.902 63.693 144.931 63.7661 144.945 63.8429C147.161 77.1394 143.034 89.213 132.527 99.889C123.319 109.245 113.212 113.865 102.113 113.865C96.6241 113.865 91.1931 112.726 86.1535 110.516C81.1139 108.306 76.5721 105.073 72.807 101.015C68.856 97.2045 65.7001 92.6251 63.5273 87.5495C61.3546 82.474 60.2094 77.006 60.16 71.4714C59.9308 60.1936 64.2674 50.1194 72.807 41.4621C76.4457 37.5233 80.8767 34.427 85.7985 32.3838C90.7203 30.3407 96.0174 29.3985 101.33 29.6214C112.271 29.9283 122.646 34.6335 130.177 42.7044C132.002 44.6294 133.687 46.6859 135.221 48.8576C135.303 48.9586 135.348 49.0856 135.348 49.2167C135.348 49.3479 135.303 49.4749 135.221 49.5758L94.1846 91.2317ZM110.137 52.4098C110.201 52.3552 110.253 52.2869 110.288 52.2097C110.323 52.1326 110.342 52.0485 110.342 51.9634C110.342 51.8783 110.323 51.7942 110.288 51.717C110.253 51.6399 110.201 51.5716 110.137 51.5169C106.373 48.9674 101.834 47.8729 97.3445 48.432C92.8546 48.9912 88.7106 51.1669 85.6642 54.5645C78.1944 62.1735 76.9526 71.3743 81.9579 80.1093C82.0028 80.1824 82.063 80.2444 82.1343 80.291C82.2056 80.3376 82.2862 80.3676 82.3702 80.3787C82.4543 80.3898 82.5397 80.3819 82.6204 80.3554C82.701 80.329 82.7749 80.2847 82.8367 80.2257L110.137 52.4098Z" fill="#0E0546"/>
<path d="M51.0851 50.9928H34.4453C34.3016 50.9927 34.1635 51.0493 34.0601 51.1507C33.9568 51.2521 33.8962 51.3903 33.8913 51.5363V84.166C33.8913 92.6292 39.8136 92.9204 51.0851 92.3186C51.161 92.3133 51.2372 92.3239 51.3089 92.3498C51.3806 92.3757 51.4462 92.4163 51.5018 92.4691C51.5574 92.5219 51.6016 92.5858 51.6318 92.6568C51.662 92.7277 51.6775 92.8042 51.6773 92.8815V110.351C51.674 110.49 51.6221 110.623 51.5311 110.726C51.4401 110.829 51.3158 110.896 51.1806 110.914C23.7278 114.039 13.6408 105.867 13.6408 84.166V51.5363C13.6408 51.3921 13.5844 51.2539 13.4841 51.1519C13.3838 51.05 13.2477 50.9928 13.1058 50.9928H0.535258C0.463375 50.9928 0.39222 50.9781 0.326043 50.9496C0.259866 50.9211 0.200019 50.8793 0.150089 50.8268C0.100159 50.7742 0.0611693 50.712 0.0354389 50.6438C0.00970851 50.5756 -0.00222592 50.5028 0.000341361 50.4298V31.7759C-0.00222592 31.7029 0.00970851 31.6302 0.0354389 31.562C0.0611693 31.4938 0.100159 31.4315 0.150089 31.379C0.200019 31.3265 0.259866 31.2847 0.326043 31.2562C0.39222 31.2276 0.463375 31.213 0.535258 31.213H13.0676C13.1395 31.213 13.2107 31.1984 13.2769 31.1699C13.343 31.1413 13.4029 31.0996 13.4528 31.047C13.5027 30.9945 13.5417 30.9322 13.5675 30.864C13.5932 30.7958 13.6051 30.7231 13.6026 30.6501V15.529C13.6089 15.4105 13.6507 15.2968 13.7224 15.2031C13.7941 15.1095 13.8923 15.0403 14.0037 15.0049L33.108 9.18159C33.1927 9.13605 33.288 9.11449 33.3837 9.11915C33.4795 9.12382 33.5722 9.15455 33.6523 9.20812C33.7323 9.26169 33.7968 9.33613 33.8388 9.42366C33.8808 9.51119 33.899 9.6086 33.8913 9.70568V30.6501C33.8913 30.7994 33.9496 30.9426 34.0535 31.0481C34.1574 31.1537 34.2984 31.213 34.4453 31.213H51.0851C51.232 31.213 51.373 31.2723 51.4769 31.3779C51.5808 31.4834 51.6391 31.6266 51.6391 31.7759V50.4687C51.6294 50.6111 51.5668 50.7445 51.4639 50.8418C51.3611 50.9391 51.2256 50.9931 51.0851 50.9928V50.9928Z" fill="#0E0546"/>
</svg>
