<svg width="588" height="261" viewBox="0 0 588 261" fill="none" xmlns="http://www.w3.org/2000/svg">
<path d="M490.29 100.031C497.792 108.058 501.859 118.779 501.599 129.846C501.865 140.966 497.801 151.743 490.29 159.836C486.913 163.711 482.754 166.801 478.096 168.895C473.437 170.989 468.389 172.037 463.295 171.968C452.884 171.968 444.726 168.513 438.823 161.505C438.753 161.416 438.658 161.35 438.55 161.319C438.442 161.287 438.327 161.291 438.221 161.33C438.115 161.369 438.024 161.44 437.961 161.534C437.897 161.628 437.865 161.741 437.868 161.855V201.065C437.868 201.214 437.809 201.357 437.705 201.463C437.601 201.568 437.461 201.628 437.314 201.628H418.209C418.062 201.628 417.921 201.568 417.818 201.463C417.714 201.357 417.655 201.214 417.655 201.065V90.5389C417.655 90.4659 417.67 90.3936 417.698 90.3263C417.726 90.2591 417.767 90.1983 417.819 90.1476C417.87 90.0968 417.932 90.0572 417.999 90.0311C418.066 90.0049 418.137 89.9928 418.209 89.9954H437.314C437.385 89.9928 437.457 90.0049 437.524 90.0311C437.591 90.0572 437.653 90.0968 437.704 90.1476C437.756 90.1983 437.797 90.2591 437.825 90.3263C437.853 90.3936 437.868 90.4659 437.868 90.5389V97.8568C437.865 97.9709 437.897 98.083 437.961 98.1772C438.024 98.2714 438.115 98.3429 438.221 98.3816C438.327 98.4203 438.442 98.4241 438.55 98.3927C438.658 98.3612 438.753 98.2959 438.823 98.2062C444.726 91.1989 452.884 87.7437 463.295 87.7437C468.399 87.7043 473.451 88.7812 478.109 90.9013C482.767 93.0214 486.921 96.135 490.29 100.031V100.031ZM459.532 152.44C462.401 152.538 465.259 152.037 467.931 150.969C470.602 149.9 473.03 148.287 475.064 146.229C477.15 144.094 478.784 141.548 479.865 138.747C480.946 135.946 481.451 132.95 481.349 129.943C481.465 126.964 480.966 123.992 479.883 121.221C478.801 118.449 477.159 115.939 475.064 113.851C470.895 109.754 465.322 107.463 459.522 107.463C453.722 107.463 448.15 109.754 443.981 113.851C441.943 115.973 440.35 118.494 439.299 121.26C438.248 124.026 437.761 126.98 437.868 129.943C437.775 132.934 438.267 135.913 439.316 138.709C440.366 141.505 441.951 144.061 443.981 146.229C446.029 148.267 448.464 149.86 451.138 150.911C453.811 151.962 456.667 152.449 459.532 152.343V152.44Z" fill="#0E0546"/>
<path d="M387.083 90.9122H406.187C406.259 90.9121 406.33 90.9268 406.397 90.9553C406.463 90.9838 406.523 91.0256 406.572 91.0782C406.622 91.1307 406.661 91.1929 406.687 91.2611C406.713 91.3293 406.725 91.4021 406.722 91.4751V170.089C406.725 170.162 406.713 170.235 406.687 170.303C406.661 170.372 406.622 170.434 406.572 170.486C406.523 170.539 406.463 170.581 406.397 170.609C406.33 170.638 406.259 170.652 406.187 170.652H387.083C387.011 170.652 386.94 170.638 386.874 170.609C386.808 170.581 386.748 170.539 386.698 170.486C386.648 170.434 386.609 170.372 386.583 170.303C386.558 170.235 386.546 170.162 386.548 170.089V163.451C386.555 163.329 386.522 163.209 386.454 163.109C386.385 163.009 386.286 162.935 386.171 162.899C386.057 162.863 385.934 162.868 385.822 162.911C385.71 162.955 385.616 163.036 385.555 163.14C380.645 169.682 373.137 172.846 363.145 172.846C359.183 172.978 355.237 172.266 351.561 170.755C347.886 169.244 344.563 166.967 341.806 164.072C336.304 158.249 333.477 150.193 333.477 139.828V91.4751C333.477 91.3258 333.535 91.1826 333.639 91.0771C333.743 90.9715 333.884 90.9122 334.031 90.9122H353.135C353.207 90.9121 353.278 90.9268 353.344 90.9553C353.41 90.9838 353.47 91.0256 353.52 91.0782C353.57 91.1307 353.609 91.1929 353.635 91.2611C353.66 91.3293 353.672 91.4021 353.67 91.4751V137.324C353.67 148 359.802 153.745 369.221 153.745C379.728 153.745 386.414 147.204 386.414 133.966V91.4751C386.409 91.3891 386.423 91.303 386.457 91.2238C386.49 91.1446 386.542 91.0746 386.607 91.0196C386.672 90.9646 386.749 90.9262 386.832 90.9075C386.915 90.8888 387.001 90.8904 387.083 90.9122V90.9122Z" fill="#0E0546"/>
<path d="M312.749 170.632H290.626C290.546 170.633 290.468 170.615 290.395 170.582C290.322 170.548 290.258 170.499 290.206 170.438L262.772 135.654C262.699 135.568 262.603 135.506 262.495 135.476C262.387 135.447 262.272 135.452 262.167 135.489C262.062 135.527 261.97 135.597 261.904 135.688C261.838 135.78 261.801 135.89 261.798 136.003V170.089C261.793 170.235 261.732 170.373 261.629 170.474C261.525 170.576 261.387 170.632 261.244 170.632H242.139C241.999 170.627 241.866 170.569 241.766 170.468C241.667 170.367 241.609 170.231 241.604 170.089V59.5629C241.604 59.4169 241.66 59.2766 241.76 59.1716C241.86 59.0666 241.996 59.005 242.139 59H261.244C261.391 59 261.531 59.0593 261.635 59.1649C261.739 59.2704 261.798 59.4136 261.798 59.5629V124.376C261.793 124.494 261.827 124.609 261.892 124.706C261.958 124.803 262.053 124.875 262.163 124.912C262.273 124.949 262.392 124.949 262.501 124.912C262.611 124.875 262.706 124.803 262.772 124.706L288.62 91.1057C288.673 91.0395 288.74 90.9861 288.816 90.9491C288.892 90.9122 288.975 90.8928 289.059 90.8922H311.813C311.915 90.8948 312.016 90.9265 312.102 90.9838C312.188 91.041 312.257 91.1215 312.3 91.2163C312.344 91.311 312.361 91.4162 312.349 91.5201C312.337 91.624 312.297 91.7225 312.233 91.8045L281.666 129.928C281.584 130.029 281.539 130.156 281.539 130.287C281.539 130.418 281.584 130.545 281.666 130.646L313.15 169.739C313.208 169.82 313.244 169.915 313.254 170.014C313.264 170.114 313.247 170.214 313.206 170.305C313.166 170.396 313.102 170.474 313.021 170.532C312.941 170.589 312.847 170.624 312.749 170.632V170.632Z" fill="#0E0546"/>
<path d="M180.185 150.232C180.124 150.294 180.078 150.37 180.052 150.453C180.025 150.537 180.018 150.626 180.031 150.712C180.044 150.799 180.077 150.881 180.126 150.953C180.176 151.025 180.242 151.083 180.318 151.125C188.953 155.861 197.398 153.939 205.746 145.457C211.038 140.06 213.388 134.024 212.681 127.657C212.663 127.529 212.692 127.399 212.762 127.291C212.833 127.184 212.94 127.107 213.063 127.074L230.257 122.396C230.331 122.376 230.408 122.372 230.484 122.384C230.56 122.396 230.633 122.424 230.697 122.466C230.762 122.508 230.817 122.563 230.86 122.628C230.902 122.693 230.931 122.766 230.945 122.843C233.161 136.139 229.034 148.213 218.527 158.889C209.319 168.245 199.212 172.865 188.113 172.865C182.624 172.865 177.193 171.726 172.154 169.516C167.114 167.306 162.572 164.073 158.807 160.015C154.856 156.204 151.7 151.625 149.527 146.55C147.355 141.474 146.209 136.006 146.16 130.471C145.931 119.194 150.267 109.119 158.807 100.462C162.446 96.5233 166.877 93.427 171.798 91.3838C176.72 89.3407 182.017 88.3985 187.33 88.6214C198.271 88.9283 208.646 93.6335 216.177 101.704C218.002 103.629 219.687 105.686 221.221 107.858C221.303 107.959 221.348 108.086 221.348 108.217C221.348 108.348 221.303 108.475 221.221 108.576L180.185 150.232ZM196.137 111.41C196.201 111.355 196.253 111.287 196.288 111.21C196.323 111.133 196.342 111.049 196.342 110.963C196.342 110.878 196.323 110.794 196.288 110.717C196.253 110.64 196.201 110.572 196.137 110.517C192.373 107.967 187.834 106.873 183.345 107.432C178.855 107.991 174.711 110.167 171.664 113.564C164.194 121.174 162.953 130.374 167.958 139.109C168.003 139.182 168.063 139.244 168.134 139.291C168.206 139.338 168.286 139.368 168.37 139.379C168.454 139.39 168.54 139.382 168.62 139.355C168.701 139.329 168.775 139.285 168.837 139.226L196.137 111.41Z" fill="#0E0546"/>
<path d="M137.085 109.993H120.445C120.302 109.993 120.164 110.049 120.06 110.151C119.957 110.252 119.896 110.39 119.891 110.536V143.166C119.891 151.629 125.814 151.92 137.085 151.319C137.161 151.313 137.237 151.324 137.309 151.35C137.381 151.376 137.446 151.416 137.502 151.469C137.557 151.522 137.602 151.586 137.632 151.657C137.662 151.728 137.678 151.804 137.677 151.882V169.351C137.674 169.49 137.622 169.623 137.531 169.726C137.44 169.829 137.316 169.896 137.181 169.914C109.728 173.039 99.6408 164.867 99.6408 143.166V110.536C99.6408 110.392 99.5844 110.254 99.4841 110.152C99.3838 110.05 99.2477 109.993 99.1058 109.993H86.5353C86.4634 109.993 86.3922 109.978 86.326 109.95C86.2599 109.921 86.2 109.879 86.1501 109.827C86.1002 109.774 86.0612 109.712 86.0354 109.644C86.0097 109.576 85.9978 109.503 86.0003 109.43V90.7759C85.9978 90.7029 86.0097 90.6302 86.0354 90.562C86.0612 90.4938 86.1002 90.4315 86.1501 90.379C86.2 90.3265 86.2599 90.2847 86.326 90.2562C86.3922 90.2276 86.4634 90.213 86.5353 90.213H99.0676C99.1395 90.213 99.2107 90.1984 99.2769 90.1699C99.343 90.1413 99.4029 90.0996 99.4528 90.047C99.5027 89.9945 99.5417 89.9322 99.5675 89.864C99.5932 89.7958 99.6051 89.7231 99.6026 89.6501V74.529C99.6089 74.4105 99.6507 74.2968 99.7224 74.2031C99.7941 74.1095 99.8923 74.0403 100.004 74.0049L119.108 68.1816C119.193 68.136 119.288 68.1145 119.384 68.1192C119.479 68.1238 119.572 68.1545 119.652 68.2081C119.732 68.2617 119.797 68.3361 119.839 68.4237C119.881 68.5112 119.899 68.6086 119.891 68.7057V89.6501C119.891 89.7994 119.95 89.9426 120.054 90.0481C120.157 90.1537 120.298 90.213 120.445 90.213H137.085C137.232 90.213 137.373 90.2723 137.477 90.3779C137.581 90.4834 137.639 90.6266 137.639 90.7759V109.469C137.629 109.611 137.567 109.745 137.464 109.842C137.361 109.939 137.226 109.993 137.085 109.993V109.993Z" fill="#0E0546"/>
</svg>
