<svg width="501.243" height="108.834" viewBox="0 0 501.243 108.834" xmlns="http://www.w3.org/2000/svg"><g id="svgGroup" stroke-linecap="round" fill-rule="evenodd" font-size="9pt" stroke="#000" stroke-width="0.25mm" fill="black" style="stroke:#000;stroke-width:0.25mm;fill:black"><path d="M 22.523 92.448 L 33.323 23.898 L 12.023 23.898 Q 6.323 23.898 3.173 21.423 Q 0.023 18.948 0.023 14.748 Q 0.023 8.448 3.623 4.923 Q 7.223 1.398 13.523 1.398 L 85.973 1.398 Q 91.673 1.398 94.748 3.798 Q 97.823 6.198 97.823 10.398 Q 97.823 16.698 94.298 20.298 Q 90.773 23.898 84.473 23.898 L 60.923 23.898 L 49.673 94.848 Q 48.623 101.598 44.798 105.048 Q 40.973 108.498 34.073 108.498 Q 27.623 108.498 24.473 104.298 A 12.81 12.81 0 0 1 22.192 96.406 A 25.616 25.616 0 0 1 22.523 92.448 Z" id="0" vector-effect="non-scaling-stroke"/><path d="M 157.223 107.148 L 107.573 107.148 Q 100.073 107.148 96.623 103.173 Q 93.173 99.198 94.373 91.848 L 106.523 14.598 Q 107.573 7.998 111.473 4.698 Q 115.373 1.398 121.973 1.398 L 172.073 1.398 Q 177.473 1.398 180.323 3.648 Q 183.173 5.898 183.173 10.098 Q 183.173 15.948 179.798 19.323 Q 176.423 22.698 170.573 22.698 L 131.573 22.698 L 128.423 42.798 L 162.173 42.798 Q 167.573 42.798 170.423 45.048 Q 173.273 47.298 173.273 51.498 Q 173.273 57.348 169.823 60.723 Q 166.373 64.098 160.673 64.098 L 124.973 64.098 L 121.523 85.848 L 158.573 85.848 Q 163.973 85.848 166.823 88.098 Q 169.673 90.348 169.673 94.548 Q 169.673 100.398 166.298 103.773 Q 162.923 107.148 157.223 107.148 Z" id="1" vector-effect="non-scaling-stroke"/><path d="M 186.173 92.598 L 198.773 13.548 Q 199.823 6.648 203.798 3.348 Q 207.773 0.048 214.373 0.048 Q 220.973 0.048 224.123 4.173 A 12.024 12.024 0 0 1 226.328 11.675 A 24.68 24.68 0 0 1 225.923 15.948 L 221.123 46.698 L 221.423 46.698 L 262.973 6.348 Q 266.273 3.198 269.198 1.623 Q 272.123 0.048 276.623 0.048 Q 282.023 0.048 285.098 3.123 A 9.925 9.925 0 0 1 288.1 10.413 A 12.389 12.389 0 0 1 288.098 10.623 Q 288.023 15.048 283.973 18.948 L 243.323 57.498 L 241.673 45.948 L 275.123 90.498 Q 278.273 94.548 277.748 98.748 Q 277.223 102.948 273.998 105.723 Q 270.773 108.498 265.673 108.498 Q 260.723 108.498 257.573 106.548 Q 254.423 104.598 250.523 99.348 L 219.473 58.698 L 219.173 58.698 L 213.473 95.298 Q 212.423 102.048 208.598 105.273 Q 204.773 108.498 197.873 108.498 Q 191.273 108.498 188.123 104.373 A 12.544 12.544 0 0 1 185.842 96.55 A 25.583 25.583 0 0 1 186.173 92.598 Z" id="2" vector-effect="non-scaling-stroke"/><path d="M 296.123 59.448 L 303.473 12.798 Q 304.523 6.348 308.273 3.198 Q 312.023 0.048 318.473 0.048 Q 325.373 0.048 328.523 3.948 A 12.03 12.03 0 0 1 330.885 11.739 A 24.523 24.523 0 0 1 330.623 15.198 L 323.273 60.948 A 45.029 45.029 0 0 0 322.801 67.217 A 22.357 22.357 0 0 0 325.748 79.248 Q 329.873 85.848 340.073 85.848 Q 349.373 85.848 355.073 80.673 Q 360.773 75.498 362.423 64.998 L 370.673 12.798 Q 371.723 6.348 375.473 3.198 Q 379.223 0.048 385.673 0.048 Q 392.423 0.048 395.498 3.948 A 11.997 11.997 0 0 1 397.79 11.596 A 23.978 23.978 0 0 1 397.523 15.048 L 389.873 63.648 Q 387.623 78.198 381.473 88.248 Q 375.323 98.298 364.673 103.548 Q 354.023 108.798 337.823 108.798 Q 327.623 108.798 319.073 105.798 Q 310.523 102.798 304.673 96.648 Q 298.823 90.498 296.498 81.198 A 45.499 45.499 0 0 1 295.233 70.15 A 69.325 69.325 0 0 1 296.123 59.448 Z" id="3" vector-effect="non-scaling-stroke"/><path d="M 403.823 92.448 L 416.123 15.048 Q 417.173 8.148 421.223 4.773 Q 425.273 1.398 432.023 1.398 L 462.923 1.398 Q 482.123 1.398 491.648 9.573 Q 501.173 17.748 501.173 31.998 Q 501.173 50.598 489.923 60.648 Q 478.673 70.698 457.073 70.698 L 434.873 70.698 L 430.973 94.848 Q 429.923 101.748 425.948 105.123 Q 421.973 108.498 415.223 108.498 Q 408.623 108.498 405.623 104.298 A 13.045 13.045 0 0 1 403.48 96.538 A 26.476 26.476 0 0 1 403.823 92.448 Z M 442.373 22.548 L 438.173 49.548 L 458.123 49.548 Q 466.373 49.548 470.648 45.648 Q 474.923 41.748 474.923 34.398 Q 474.923 28.248 471.098 25.398 Q 467.273 22.548 459.173 22.548 L 442.373 22.548 Z" id="4" vector-effect="non-scaling-stroke"/></g></svg>